<svg version="1.1" viewBox="0.0 0.0 134.3202099737533 134.91076115485563" fill="none" stroke="none" stroke-linecap="square" stroke-miterlimit="10" xmlns:xlink="http://www.w3.org/1999/xlink" xmlns="http://www.w3.org/2000/svg"><clipPath id="p.0"><path d="m0 0l134.3202 0l0 134.91077l-134.3202 0l0 -134.91077z" clip-rule="nonzero"/></clipPath><g clip-path="url(#p.0)"><path fill="#000000" fill-opacity="0.0" d="m0 0l134.3202 0l0 134.91077l-134.3202 0z" fill-rule="evenodd"/><path fill="#b4a7d6" d="m1.183432 66.954216l0 0c0 -36.329033 29.450499 -65.779526 65.779526 -65.779526l0 0c17.445816 0 34.177094 6.9303226 46.513153 19.266376c12.336052 12.336054 19.26638 29.067335 19.26638 46.513153l0 0c0 36.329033 -29.4505 65.77953 -65.77953 65.77953l0 0c-36.32903 0 -65.779526 -29.4505 -65.779526 -65.77953z" fill-rule="evenodd"/><path fill="#000000" fill-opacity="0.0" d="m13.941962 -37.67833l110.267715 0l0 180.97638l-110.267715 0z" fill-rule="evenodd"/><path fill="#ff0000" d="m55.348213 97.181046q-3.34375 0 -6.484375 -0.71875q-3.125 -0.734375 -5.0 -2.0q-1.859375 -1.28125 -1.71875 -2.875q0.125 -2.125 0.921875 -2.328125q0.8125 -0.203125 3.734375 0.203125q4.546875 0.921875 9.734375 0.125q5.203125 -0.796875 9.734375 -2.796875q4.53125 -2.0 7.0625 -4.53125q3.609375 -3.46875 3.265625 -6.9375q-0.328125 -3.46875 -4.1875 -6.0q-1.734375 -1.203125 -4.8125 -2.265625q-3.0625 -1.0625 -6.0625 -1.65625q-3.0 -0.609375 -4.859375 -0.484375q-1.203125 0.140625 -1.9375 0.015625q-0.734375 -0.140625 -2.46875 -1.078125q-0.796875 -0.9375 -1.46875 -2.0625q-0.65625 -1.140625 -0.921875 -1.671875q-0.140625 -0.65625 0.71875 -1.328125q0.875 -0.671875 3.8125 -2.328125q2.9375 -1.671875 9.0625 -5.0q5.59375 -3.078125 8.859375 -5.0q3.28125 -1.9375 5.203125 -3.203125q1.9375 -1.265625 3.140625 -2.328125q2.390625 -3.203125 2.390625 -4.140625q0 -0.9375 -3.453125 -1.59375q-3.34375 -0.265625 -6.40625 -0.40625q-3.0625 -0.140625 -3.0625 0.40625q0 0 -0.078125 0q-0.0625 0 -0.453125 0q-0.671875 -0.265625 -2.9375 0.140625q-2.265625 0.390625 -4.34375 0.921875q-2.0625 0.53125 -2.1875 0.9375q-0.140625 0.265625 -1.546875 0.859375q-1.390625 0.59375 -2.796875 1.0q-1.390625 0.40625 -1.796875 0.40625q-0.65625 -0.265625 -1.53125 -1.390625q-0.859375 -1.140625 -1.40625 -2.40625q-0.53125 -1.28125 -0.265625 -1.9375q0.265625 -0.53125 1.671875 -1.390625q1.40625 -0.875 3.265625 -1.875q1.875 -1.0 3.328125 -1.671875q1.875 -0.53125 5.265625 -0.796875q3.40625 -0.265625 6.875 -0.328125q3.46875 -0.078125 5.0625 0.0625q6.140625 0.65625 9.46875 3.203125q3.328125 2.53125 4.140625 6.796875q0.390625 1.859375 0.25 3.0625q-0.125 1.203125 -1.1875 2.46875q-1.0625 1.265625 -3.734375 3.671875q-3.328125 2.125 -5.46875 3.59375q-2.125 1.46875 -6.40625 3.734375q-0.921875 0.671875 -2.53125 1.734375q-1.59375 1.0625 -2.9375 1.9375q-1.328125 0.859375 -1.328125 1.125q0 0 0.53125 0.34375q0.546875 0.328125 1.34375 0.859375q0.796875 0.53125 1.46875 1.203125q3.859375 1.328125 7.0625 4.265625q3.203125 2.921875 4.53125 4.796875q1.859375 4.125 1.53125 8.0q-0.328125 3.859375 -2.734375 7.265625q-2.390625 3.390625 -7.0625 6.203125q-3.734375 2.125 -8.671875 3.53125q-4.921875 1.390625 -9.1875 1.65625z" fill-rule="nonzero"/><path fill="#000000" fill-opacity="0.0" d="m43.188683 92.24498l15.212597 15.244095" fill-rule="evenodd"/><path stroke="#ff0000" stroke-width="4.0" stroke-linejoin="round" stroke-linecap="butt" d="m43.188683 92.24498l15.212597 15.244095" fill-rule="evenodd"/><path fill="#000000" fill-opacity="0.0" d="m40.907246 92.24498l16.409447 -11.496063" fill-rule="evenodd"/><path stroke="#ff0000" stroke-width="4.0" stroke-linejoin="round" stroke-linecap="butt" d="m40.907246 92.24498l16.409447 -11.496063" fill-rule="evenodd"/></g></svg>